<svg width="25" height="25" viewBox="0 0 25 25" fill="none" xmlns="http://www.w3.org/2000/svg">
<g clip-path="url(#clip0_113_568)">
<path fill-rule="evenodd" clip-rule="evenodd" d="M12.9926 16.4212C12.8051 16.6087 12.5508 16.714 12.2856 16.714C12.0205 16.714 11.7661 16.6087 11.5786 16.4212L5.92162 10.7642C5.82611 10.672 5.74993 10.5616 5.69752 10.4396C5.64511 10.3176 5.61752 10.1864 5.61637 10.0536C5.61522 9.92083 5.64052 9.78915 5.6908 9.66626C5.74108 9.54336 5.81533 9.43171 5.90923 9.33781C6.00312 9.24392 6.11477 9.16967 6.23767 9.11939C6.36056 9.06911 6.49224 9.04381 6.62502 9.04496C6.7578 9.04611 6.88902 9.0737 7.01103 9.12611C7.13303 9.17852 7.24337 9.2547 7.33562 9.35021L12.2856 14.3002L17.2356 9.35021C17.4242 9.16805 17.6768 9.06726 17.939 9.06954C18.2012 9.07181 18.452 9.17698 18.6374 9.36239C18.8228 9.5478 18.928 9.79861 18.9303 10.0608C18.9326 10.323 18.8318 10.5756 18.6496 10.7642L12.9926 16.4212Z" fill="black"/>
</g>
<defs>
<clipPath id="clip0_113_568">
<rect width="24" height="24" fill="white" transform="translate(0.285645 0.714111)"/>
</clipPath>
</defs>
</svg>
