<svg width="31" height="30" viewBox="0 0 31 30" fill="none" xmlns="http://www.w3.org/2000/svg">
<path d="M25.5981 7.5H20.9106C20.9106 6.00816 20.318 4.57742 19.2631 3.52252C18.2082 2.46763 16.7775 1.875 15.2856 1.875C13.7938 1.875 12.3631 2.46763 11.3082 3.52252C10.2533 4.57742 9.66064 6.00816 9.66064 7.5H4.97314C4.47586 7.5 3.99895 7.69754 3.64732 8.04918C3.29569 8.40081 3.09814 8.87772 3.09814 9.375V23.4375C3.09814 23.9348 3.29569 24.4117 3.64732 24.7633C3.99895 25.115 4.47586 25.3125 4.97314 25.3125H25.5981C26.0954 25.3125 26.5723 25.115 26.924 24.7633C27.2756 24.4117 27.4731 23.9348 27.4731 23.4375V9.375C27.4731 8.87772 27.2756 8.40081 26.924 8.04918C26.5723 7.69754 26.0954 7.5 25.5981 7.5ZM15.2856 3.75C16.2802 3.75 17.234 4.14509 17.9373 4.84835C18.6406 5.55161 19.0356 6.50544 19.0356 7.5H11.5356C11.5356 6.50544 11.9307 5.55161 12.634 4.84835C13.3373 4.14509 14.2911 3.75 15.2856 3.75ZM25.5981 23.4375H4.97314V9.375H9.66064V11.25C9.66064 11.4986 9.75942 11.7371 9.93523 11.9129C10.111 12.0887 10.3495 12.1875 10.5981 12.1875C10.8468 12.1875 11.0852 12.0887 11.2611 11.9129C11.4369 11.7371 11.5356 11.4986 11.5356 11.25V9.375H19.0356V11.25C19.0356 11.4986 19.1344 11.7371 19.3102 11.9129C19.486 12.0887 19.7245 12.1875 19.9731 12.1875C20.2218 12.1875 20.4602 12.0887 20.6361 11.9129C20.8119 11.7371 20.9106 11.4986 20.9106 11.25V9.375H25.5981V23.4375Z" fill="black"/>
</svg>
