<svg width="46" height="46" viewBox="0 0 46 46" fill="none" xmlns="http://www.w3.org/2000/svg">
<g clip-path="url(#clip0_230_24)">
<path d="M40.7119 15.6172C41.3711 15.9834 41.9717 16.4302 42.5137 16.9575C43.0557 17.4849 43.5098 18.0708 43.876 18.7153C44.2422 19.3599 44.5352 20.041 44.7549 20.7588C44.9746 21.4766 45.0771 22.2236 45.0625 23H42.25C42.25 22.2383 42.1035 21.5132 41.8105 20.8247C41.5176 20.1362 41.1147 19.543 40.6021 19.0449C40.0894 18.5469 39.4888 18.144 38.8003 17.8364C38.1118 17.5288 37.3867 17.375 36.625 17.375C35.8486 17.375 35.1235 17.5215 34.4497 17.8145C33.7759 18.1074 33.1826 18.5103 32.6699 19.0229C32.1572 19.5356 31.7544 20.1362 31.4614 20.8247C31.1685 21.5132 31.0146 22.2383 31 23C31 24.333 30.6997 25.6001 30.0991 26.8013C29.4985 28.0024 28.6562 28.9985 27.5723 29.7896C28.5244 30.2729 29.3813 30.8662 30.1431 31.5693C30.9048 32.2725 31.564 33.0635 32.1206 33.9424C32.6772 34.8213 33.0947 35.7588 33.373 36.7549C33.6514 37.751 33.7979 38.791 33.8125 39.875H31C31 38.7178 30.7803 37.6265 30.3408 36.6011C29.9014 35.5757 29.2935 34.6821 28.5171 33.9204C27.7407 33.1587 26.8472 32.5581 25.8364 32.1187C24.8257 31.6792 23.7344 31.4521 22.5625 31.4375C21.4053 31.4375 20.314 31.6572 19.2886 32.0967C18.2632 32.5361 17.3696 33.144 16.6079 33.9204C15.8462 34.6968 15.2456 35.5903 14.8062 36.6011C14.3667 37.6118 14.1396 38.7031 14.125 39.875H11.3125C11.3125 38.8057 11.459 37.7729 11.752 36.7769C12.0449 35.7808 12.4624 34.8433 13.0044 33.9644C13.5464 33.0854 14.1982 32.2944 14.96 31.5913C15.7217 30.8882 16.5859 30.2876 17.5527 29.7896C16.4834 28.9985 15.6484 28.0024 15.0479 26.8013C14.4473 25.6001 14.1396 24.333 14.125 23C14.125 22.2383 13.9785 21.5132 13.6855 20.8247C13.3926 20.1362 12.9897 19.543 12.4771 19.0449C11.9644 18.5469 11.3638 18.144 10.6753 17.8364C9.98682 17.5288 9.26172 17.375 8.5 17.375C7.72363 17.375 6.99854 17.5215 6.32471 17.8145C5.65088 18.1074 5.05762 18.5103 4.54492 19.0229C4.03223 19.5356 3.62939 20.1362 3.33643 20.8247C3.04346 21.5132 2.88965 22.2383 2.875 23H0.0625C0.0625 22.2383 0.165039 21.4985 0.370117 20.7808C0.575195 20.063 0.86084 19.3818 1.22705 18.7373C1.59326 18.0928 2.05469 17.5068 2.61133 16.9795C3.16797 16.4521 3.76855 15.998 4.41309 15.6172C3.92969 15.1045 3.55615 14.5112 3.29248 13.8374C3.02881 13.1636 2.88965 12.4678 2.875 11.75C2.875 10.9883 3.02148 10.2632 3.31445 9.57471C3.60742 8.88623 4.01025 8.29297 4.52295 7.79492C5.03564 7.29688 5.62891 6.89404 6.30273 6.58643C6.97656 6.27881 7.70898 6.125 8.5 6.125C9.26172 6.125 9.98682 6.27148 10.6753 6.56445C11.3638 6.85742 11.957 7.26025 12.4551 7.77295C12.9531 8.28564 13.356 8.88623 13.6636 9.57471C13.9712 10.2632 14.125 10.9883 14.125 11.75C14.125 12.4678 13.9932 13.1636 13.7295 13.8374C13.4658 14.5112 13.085 15.1045 12.5869 15.6172C13.7881 16.2764 14.7695 17.1846 15.5312 18.3418C16.3223 17.1699 17.333 16.2471 18.5635 15.5732C19.7939 14.8994 21.127 14.5625 22.5625 14.5625C23.9834 14.5625 25.3091 14.8994 26.5396 15.5732C27.77 16.2471 28.7881 17.1699 29.5938 18.3418C30.3555 17.1846 31.3369 16.2764 32.5381 15.6172C32.0547 15.1045 31.6812 14.5112 31.4175 13.8374C31.1538 13.1636 31.0146 12.4678 31 11.75C31 10.9883 31.1465 10.2632 31.4395 9.57471C31.7324 8.88623 32.1353 8.29297 32.6479 7.79492C33.1606 7.29688 33.7539 6.89404 34.4277 6.58643C35.1016 6.27881 35.834 6.125 36.625 6.125C37.3867 6.125 38.1118 6.27148 38.8003 6.56445C39.4888 6.85742 40.082 7.26025 40.5801 7.77295C41.0781 8.28564 41.481 8.88623 41.7886 9.57471C42.0962 10.2632 42.25 10.9883 42.25 11.75C42.25 12.4678 42.1182 13.1636 41.8545 13.8374C41.5908 14.5112 41.21 15.1045 40.7119 15.6172ZM5.6875 11.75C5.6875 12.1455 5.76074 12.5117 5.90723 12.8486C6.05371 13.1855 6.25146 13.4785 6.50049 13.7275C6.74951 13.9766 7.0498 14.1816 7.40137 14.3428C7.75293 14.5039 8.11914 14.5771 8.5 14.5625C8.89551 14.5625 9.26172 14.4893 9.59863 14.3428C9.93555 14.1963 10.2285 13.9985 10.4775 13.7495C10.7266 13.5005 10.9316 13.2002 11.0928 12.8486C11.2539 12.4971 11.3271 12.1309 11.3125 11.75C11.3125 11.3545 11.2393 10.9883 11.0928 10.6514C10.9463 10.3145 10.7485 10.0215 10.4995 9.77246C10.2505 9.52344 9.9502 9.31836 9.59863 9.15723C9.24707 8.99609 8.88086 8.92285 8.5 8.9375C8.10449 8.9375 7.73828 9.01074 7.40137 9.15723C7.06445 9.30371 6.77148 9.50146 6.52246 9.75049C6.27344 9.99951 6.06836 10.2998 5.90723 10.6514C5.74609 11.0029 5.67285 11.3691 5.6875 11.75ZM22.5625 28.625C23.3242 28.625 24.0493 28.4785 24.7378 28.1855C25.4263 27.8926 26.0195 27.4897 26.5176 26.9771C27.0156 26.4644 27.4185 25.8711 27.7261 25.1973C28.0337 24.5234 28.1875 23.791 28.1875 23C28.1875 22.2383 28.041 21.5132 27.748 20.8247C27.4551 20.1362 27.0522 19.543 26.5396 19.0449C26.0269 18.5469 25.4263 18.144 24.7378 17.8364C24.0493 17.5288 23.3242 17.375 22.5625 17.375C21.7861 17.375 21.061 17.5215 20.3872 17.8145C19.7134 18.1074 19.1201 18.5103 18.6074 19.0229C18.0947 19.5356 17.6919 20.1362 17.3989 20.8247C17.106 21.5132 16.9521 22.2383 16.9375 23C16.9375 23.7764 17.084 24.5015 17.377 25.1753C17.6699 25.8491 18.0728 26.4424 18.5854 26.9551C19.0981 27.4678 19.6914 27.8706 20.3652 28.1636C21.0391 28.4565 21.7715 28.6104 22.5625 28.625ZM33.8125 11.75C33.8125 12.1455 33.8857 12.5117 34.0322 12.8486C34.1787 13.1855 34.3765 13.4785 34.6255 13.7275C34.8745 13.9766 35.1748 14.1816 35.5264 14.3428C35.8779 14.5039 36.2441 14.5771 36.625 14.5625C37.0205 14.5625 37.3867 14.4893 37.7236 14.3428C38.0605 14.1963 38.3535 13.9985 38.6025 13.7495C38.8516 13.5005 39.0566 13.2002 39.2178 12.8486C39.3789 12.4971 39.4521 12.1309 39.4375 11.75C39.4375 11.3545 39.3643 10.9883 39.2178 10.6514C39.0713 10.3145 38.8735 10.0215 38.6245 9.77246C38.3755 9.52344 38.0752 9.31836 37.7236 9.15723C37.3721 8.99609 37.0059 8.92285 36.625 8.9375C36.2295 8.9375 35.8633 9.01074 35.5264 9.15723C35.1895 9.30371 34.8965 9.50146 34.6475 9.75049C34.3984 9.99951 34.1934 10.2998 34.0322 10.6514C33.8711 11.0029 33.7979 11.3691 33.8125 11.75Z" fill="#199A8E"/>
</g>
<defs>
<clipPath id="clip0_230_24">
<rect width="45" height="45" fill="white" transform="translate(0.0625 0.5)"/>
</clipPath>
</defs>
</svg>
