<svg width="24" height="24" viewBox="0 0 24 24" fill="none" xmlns="http://www.w3.org/2000/svg">
<path d="M17.905 13.9176C19.615 13.9176 21 15.2793 21 16.9593C21 18.6383 19.615 20 17.905 20C16.196 20 14.81 18.6383 14.81 16.9593C14.81 15.2793 16.196 13.9176 17.905 13.9176ZM10.275 15.6622C11.024 15.6622 11.632 16.2595 11.632 16.9954C11.632 17.7302 11.024 18.3285 10.275 18.3285H4.35699C3.608 18.3285 3 17.7302 3 16.9954C3 16.2595 3.608 15.6622 4.35699 15.6622H10.275ZM6.09498 4C7.80497 4 9.18997 5.36169 9.18997 7.0407C9.18997 8.72071 7.80497 10.0824 6.09498 10.0824C4.38599 10.0824 3 8.72071 3 7.0407C3 5.36169 4.38599 4 6.09498 4ZM19.644 5.70849C20.392 5.70849 21 6.30583 21 7.0407C21 7.77656 20.392 8.3739 19.644 8.3739H13.726C12.977 8.3739 12.369 7.77656 12.369 7.0407C12.369 6.30583 12.977 5.70849 13.726 5.70849H19.644Z" fill="black"/>
</svg>
