<svg width="31" height="30" viewBox="0 0 31 30" fill="none" xmlns="http://www.w3.org/2000/svg">
<path fill-rule="evenodd" clip-rule="evenodd" d="M7.31565 5.52996C5.24189 6.47746 3.72314 8.73246 3.72314 11.4212C3.72314 14.1675 4.84815 16.285 6.45815 18.1C7.7869 19.595 9.3944 20.835 10.9619 22.0425C11.3344 22.33 11.7044 22.6162 12.0681 22.9025C12.7256 23.4212 13.3119 23.875 13.8781 24.2062C14.4431 24.5362 14.8981 24.6875 15.2856 24.6875C15.6731 24.6875 16.1281 24.5375 16.6931 24.2062C17.2594 23.875 17.8456 23.4212 18.5031 22.9025C18.8656 22.615 19.2369 22.33 19.6094 22.0437C21.1769 20.8337 22.7844 19.595 24.1131 18.1C25.7244 16.285 26.8481 14.1675 26.8481 11.4212C26.8481 8.73371 25.3294 6.47746 23.2556 5.52996C21.2406 4.60871 18.5331 4.85246 15.9606 7.52621C15.8732 7.61695 15.7683 7.68912 15.6524 7.73841C15.5364 7.78771 15.4117 7.81311 15.2856 7.81311C15.1596 7.81311 15.0349 7.78771 14.9189 7.73841C14.8029 7.68912 14.6981 7.61695 14.6106 7.52621C12.0381 4.85246 9.33065 4.60871 7.31565 5.52996ZM15.2856 5.57496C12.3956 2.98746 9.1594 2.62496 6.53565 3.82371C3.76814 5.09246 1.84814 8.03246 1.84814 11.4225C1.84814 14.7537 3.23564 17.2962 5.05689 19.3462C6.51439 20.9875 8.29815 22.3612 9.8744 23.5737C10.2319 23.8487 10.5781 24.1162 10.9069 24.3762C11.5481 24.8812 12.2356 25.4187 12.9319 25.8262C13.6281 26.2325 14.4231 26.5637 15.2856 26.5637C16.1481 26.5637 16.9431 26.2325 17.6394 25.8262C18.3369 25.4187 19.0231 24.8812 19.6644 24.3762C20.0068 24.1064 20.351 23.8389 20.6969 23.5737C22.2719 22.3612 24.0569 20.9862 25.5144 19.3462C27.3356 17.2962 28.7231 14.7537 28.7231 11.4225C28.7231 8.03246 26.8044 5.09246 24.0356 3.82621C21.4119 2.62621 18.1756 2.98871 15.2856 5.57496Z" fill="white"/>
</svg>
