<svg width="51" height="46" viewBox="0 0 51 46" fill="none" xmlns="http://www.w3.org/2000/svg">
<g clip-path="url(#clip0_237_2)">
<path d="M6.06059 43.3972V12.7409L1.11621 1.87062L3.69246 0.669678L9.11215 12.6003H42.384L47.8037 0.669678L50.38 1.87062L45.4356 12.7409V43.3972H6.06059ZM20.1231 25.1159H31.3731C31.7725 25.1159 32.1062 24.9809 32.3743 24.7109C32.6443 24.4409 32.7793 24.1062 32.7793 23.7069C32.7793 23.3075 32.6443 22.9737 32.3743 22.7056C32.1062 22.4375 31.7725 22.3034 31.3731 22.3034H20.1231C19.7237 22.3034 19.39 22.4384 19.1218 22.7084C18.8518 22.9784 18.7168 23.3131 18.7168 23.7125C18.7168 24.1119 18.8518 24.4456 19.1218 24.7137C19.3918 24.9819 19.7256 25.1159 20.1231 25.1159ZM8.87309 40.5847H42.6231V15.4128H8.87309V40.5847Z" fill="#FAD88E"/>
</g>
<defs>
<clipPath id="clip0_237_2">
<rect width="50.625" height="45" fill="white" transform="translate(0.144531 0.5)"/>
</clipPath>
</defs>
</svg>
