<svg width="46" height="46" viewBox="0 0 46 46" fill="none" xmlns="http://www.w3.org/2000/svg">
<g clip-path="url(#clip0_237_8)">
<path d="M29.5586 0.918945L45.0273 8.65332V25.9019L42.2148 24.4956V11.7954L30.9648 17.4204V23.0894L28.1523 24.4956V17.4204L16.9023 11.7954V16.7832L14.0898 15.377V8.65332L29.5586 0.918945ZM29.5586 14.9814L33.4478 13.0259L23.2744 7.20312L18.6382 9.53223L29.5586 14.9814ZM36.48 11.5317L40.479 9.53223L29.5586 4.06104L26.2847 5.70898L36.48 11.5317ZM25.3398 25.9019L22.5273 27.3081V27.2861L14.0898 31.5049V41.5024L22.5273 37.2617V40.4258L12.6836 45.3477L0.0273438 38.9976V24.144L12.6836 17.8159L25.3398 24.144V25.9019ZM11.2773 41.5024V31.5049L2.83984 27.2861V37.2617L11.2773 41.5024ZM12.6836 29.0659L20.7915 25.0229L12.6836 20.958L4.57568 25.0229L12.6836 29.0659ZM25.3398 29.0439L35.1836 24.1221L45.0273 29.0439V40.6235L35.1836 45.5454L25.3398 40.6235V29.0439ZM33.7773 41.7002V34.9985L28.1523 32.186V38.8877L33.7773 41.7002ZM42.2148 38.8877V32.186L36.5898 34.9985V41.7002L42.2148 38.8877ZM35.1836 32.5596L40.479 29.9009L35.1836 27.2642L29.8882 29.9009L35.1836 32.5596Z" fill="#FAD88E"/>
</g>
<defs>
<clipPath id="clip0_237_8">
<rect width="45" height="45" fill="white" transform="translate(0.0273438 0.875)"/>
</clipPath>
</defs>
</svg>
