<svg width="21" height="25" viewBox="0 0 21 25" fill="none" xmlns="http://www.w3.org/2000/svg">
<path fill-rule="evenodd" clip-rule="evenodd" d="M7.125 5.07141V2.82141H13.875V5.07141H7.125ZM4.875 5.07141V2.07141C4.875 1.67359 5.03304 1.29206 5.31434 1.01075C5.59564 0.729446 5.97718 0.571411 6.375 0.571411L14.625 0.571411C15.0228 0.571411 15.4044 0.729446 15.6857 1.01075C15.967 1.29206 16.125 1.67359 16.125 2.07141V5.07141H19.875C20.1734 5.07141 20.4595 5.18994 20.6705 5.40092C20.8815 5.61189 21 5.89804 21 6.19641C21 6.49478 20.8815 6.78093 20.6705 6.99191C20.4595 7.20288 20.1734 7.32141 19.875 7.32141H19.3275L18.213 21.8009C18.1552 22.5546 17.815 23.2586 17.2604 23.7723C16.7059 24.286 15.9779 24.5714 15.222 24.5714H5.778C5.02211 24.5714 4.29411 24.286 3.73957 23.7723C3.18503 23.2586 2.84483 22.5546 2.787 21.8009L1.6725 7.32141H1.125C0.826631 7.32141 0.540483 7.20288 0.329505 6.99191C0.118526 6.78093 0 6.49478 0 6.19641C0 5.89804 0.118526 5.61189 0.329505 5.40092C0.540483 5.18994 0.826631 5.07141 1.125 5.07141H4.875ZM3.93 7.32141H17.07L15.969 21.6284C15.9546 21.8168 15.8697 21.9928 15.7313 22.1212C15.5928 22.2497 15.4109 22.3212 15.222 22.3214H5.778C5.5891 22.3212 5.40723 22.2497 5.26875 22.1212C5.13026 21.9928 5.04536 21.8168 5.031 21.6284L3.93 7.32141Z" fill="#727272"/>
</svg>
