<svg width="45" height="46" viewBox="0 0 45 46" fill="none" xmlns="http://www.w3.org/2000/svg">
<g clip-path="url(#clip0_237_4)">
<path d="M31.1456 0.825339C23.6774 0.825339 17.6231 4.16399 17.6231 8.28842C17.6231 12.4128 23.6791 15.7532 31.1456 15.7532C38.6139 15.7532 44.6681 12.4128 44.6681 8.28842C44.6681 4.16399 38.6122 0.825339 31.1456 0.825339ZM44.6681 10.5055C44.6647 14.63 38.6139 17.9703 31.1456 17.9703C23.6981 17.9703 17.6577 14.6663 17.6231 10.5609V13.4807C17.6231 15.2426 18.7516 16.8557 20.6 18.133C22.4693 18.6419 24.1343 19.348 25.5206 20.2411C27.2393 20.6773 29.1293 20.9438 31.1456 20.9438C38.6139 20.9438 44.6681 17.6051 44.6681 13.4807V10.5055ZM44.6681 15.6978C44.6681 19.8223 38.6139 23.1626 31.1456 23.1626C30.237 23.1626 29.3543 23.0951 28.4958 23C29.1732 23.9123 29.6354 24.9661 29.8475 26.0825C30.2785 26.1067 30.7043 26.1361 31.1456 26.1361C38.6139 26.1361 44.6681 22.7975 44.6681 18.673V15.6978ZM13.8379 19.8621C6.36966 19.8621 0.31543 23.2025 0.31543 27.3269C0.31543 31.4513 6.37139 34.7917 13.8379 34.7917C21.3062 34.7917 27.3604 31.4513 27.3604 27.3269C27.3604 23.2025 21.3045 19.8621 13.8379 19.8621ZM44.6681 20.8901C44.6647 25.0146 38.6139 28.355 31.1456 28.355C30.7112 28.355 30.2716 28.3238 29.8475 28.2996C29.8285 28.4294 29.8181 28.6025 29.7939 28.7323C29.8804 28.9936 29.9549 29.2515 29.9549 29.5457V31.2765C30.3477 31.2955 30.7424 31.3284 31.1456 31.3284C38.6139 31.3284 44.6681 27.9898 44.6681 23.8653V20.8901ZM44.6681 26.0825C44.6647 30.2069 38.6139 33.5473 31.1456 33.5473C30.7112 33.5473 30.2716 33.5161 29.8475 33.4919C29.8285 33.6217 29.8181 33.7948 29.7939 33.9246C29.8804 34.1842 29.9549 34.4438 29.9549 34.738V36.4688C30.3477 36.4878 30.7424 36.5207 31.1456 36.5207C38.6139 36.5207 44.6681 33.1821 44.6681 29.0576V26.0825ZM27.3604 29.544C27.357 33.6684 21.3062 37.0088 13.8379 37.0088C6.39043 37.0088 0.350045 33.7048 0.31543 29.5976V32.5192C0.31543 36.6436 6.36793 39.984 13.8379 39.984C21.3079 39.984 27.3604 36.6436 27.3604 32.5192V29.544ZM27.3604 34.7363C27.357 38.8607 21.3062 42.2011 13.8379 42.2011C6.39043 42.2011 0.350045 38.8971 0.31543 34.79V37.7115C0.31543 41.8359 6.36793 45.1763 13.8379 45.1763C21.3079 45.1763 27.3604 41.8359 27.3604 37.7115V34.7363Z" fill="#FABC0D"/>
</g>
<defs>
<clipPath id="clip0_237_4">
<rect width="45" height="45" fill="white" transform="translate(-0.0078125 0.5)"/>
</clipPath>
</defs>
</svg>
