<svg width="46" height="46" viewBox="0 0 46 46" fill="none" xmlns="http://www.w3.org/2000/svg">
<path fill-rule="evenodd" clip-rule="evenodd" d="M22.1289 7.0775C21.3902 8.04125 20.5577 9.53 19.3464 11.7013L18.7333 12.8019L18.6227 13.0006C18.0602 14.0131 17.5821 14.8719 16.8152 15.4531C16.0408 16.0419 15.0958 16.2537 13.9971 16.5012L13.7833 16.55L12.5908 16.82C10.2377 17.3525 8.63455 17.7181 7.53955 18.1512C6.46893 18.5712 6.24393 18.9181 6.15768 19.1938C6.0658 19.4862 6.06393 19.9344 6.70143 20.9506C7.35205 21.9819 8.44893 23.2681 10.0502 25.1431L10.8639 26.0938L11.0046 26.2569C11.7602 27.1381 12.3902 27.8731 12.6789 28.8031C12.9658 29.7275 12.8702 30.6969 12.7539 31.8744L12.7352 32.0938L12.6114 33.3631C12.3677 35.8606 12.2064 37.5819 12.2608 38.8194C12.3171 40.0569 12.5777 40.3981 12.7858 40.5556C12.9696 40.6963 13.3108 40.85 14.4227 40.5312C15.5533 40.2087 17.0571 39.5206 19.2602 38.5062L20.3777 37.9925L20.5821 37.8988C21.6039 37.4244 22.4889 37.0156 23.4564 37.0156C24.4239 37.0156 25.3089 37.4244 26.3308 37.8969C26.3989 37.9296 26.4676 37.9609 26.5371 37.9906L27.6527 38.5062C29.8558 39.5206 31.3596 40.2087 32.4902 40.5312C33.6021 40.85 33.9433 40.6963 34.1271 40.5556C34.3352 40.3981 34.5958 40.055 34.6521 38.8194C34.7083 37.5819 34.5433 35.8606 34.3014 33.3631L34.1777 32.0938L34.1589 31.8744C34.0427 30.6969 33.9471 29.7275 34.2339 28.8031C34.5227 27.8731 35.1527 27.1381 35.9083 26.2569L36.0489 26.0938L36.8627 25.1431C38.4639 23.2681 39.5608 21.9819 40.2096 20.9506C40.8489 19.9344 40.8471 19.4881 40.7552 19.1938C40.6689 18.9181 40.4439 18.5712 39.3733 18.1512C38.2764 17.7181 36.6752 17.3525 34.3221 16.82L33.1296 16.55C33.0564 16.5312 32.9852 16.5162 32.9158 16.5012C31.8171 16.2537 30.8721 16.0419 30.0977 15.4531C29.3289 14.8719 28.8546 14.015 28.2902 13.0006L28.1814 12.8019L27.5664 11.7013C26.3552 9.53 25.5227 8.04125 24.7839 7.0775C24.0471 6.11375 23.6702 6.03125 23.4564 6.03125C23.2427 6.03125 22.8658 6.11375 22.1289 7.0775ZM19.8977 5.3675C20.7883 4.20125 21.8927 3.21875 23.4564 3.21875C25.0202 3.21875 26.1227 4.20125 27.0171 5.3675C27.8946 6.515 28.8264 8.18563 29.9646 10.2275L30.6377 11.4331C31.3727 12.7531 31.5621 13.0344 31.7983 13.2144C32.0233 13.385 32.3177 13.4825 33.7483 13.8069L35.0608 14.1031C37.2658 14.6019 39.0827 15.0125 40.4046 15.5337C41.7771 16.0756 42.9789 16.8725 43.4421 18.3594C43.8996 19.8312 43.3858 21.185 42.5908 22.4469C41.8183 23.675 40.5846 25.1187 39.0771 26.8813L38.1864 27.9219C37.2171 29.0544 37.0146 29.3319 36.9189 29.6375C36.8233 29.9506 36.8308 30.3125 36.9789 31.8219L37.1121 33.2056C37.3408 35.5606 37.5264 37.4806 37.4608 38.9431C37.3952 40.4338 37.0577 41.8625 35.8296 42.7962C34.5771 43.745 33.1202 43.64 31.7139 43.235C30.3508 42.845 28.6521 42.0631 26.5896 41.1125L25.3596 40.5463C24.0133 39.9275 23.7264 39.8281 23.4564 39.8281C23.1864 39.8281 22.8996 39.9275 21.5533 40.5463L20.3252 41.1125C18.2608 42.0631 16.5621 42.845 15.1989 43.235C13.7927 43.6381 12.3358 43.745 11.0852 42.7962C9.85518 41.8625 9.51768 40.4338 9.45205 38.945C9.38643 37.4825 9.57205 35.5606 9.8008 33.2075L9.9358 31.8219C10.0821 30.3106 10.0896 29.9506 9.99205 29.6375C9.8983 29.3319 9.6958 29.0562 8.72643 27.9219L7.8358 26.8813C6.33018 25.1187 5.09643 23.675 4.32393 22.4487C3.52705 21.185 3.0133 19.8312 3.4708 18.3594C3.93393 16.8725 5.1358 16.0756 6.5083 15.5337C7.83018 15.0125 9.64705 14.6019 11.8521 14.1031L11.9702 14.0769L13.1627 13.8069C14.5952 13.4825 14.8877 13.385 15.1146 13.2125C15.3508 13.0344 15.5402 12.7531 16.2771 11.4331L16.9483 10.2275C18.0864 8.18375 19.0183 6.515 19.8958 5.3675" fill="#FBBC05"/>
</svg>
