<svg width="46" height="46" viewBox="0 0 46 46" fill="none" xmlns="http://www.w3.org/2000/svg">
<path d="M37.9961 13.1562H9.87109C9.49813 13.1562 9.14045 13.0081 8.87673 12.7444C8.613 12.4806 8.46484 12.123 8.46484 11.75C8.46484 11.377 8.613 11.0194 8.87673 10.7556C9.14045 10.4919 9.49813 10.3438 9.87109 10.3438H33.7773C34.1503 10.3438 34.508 10.1956 34.7717 9.93187C35.0354 9.66815 35.1836 9.31046 35.1836 8.9375C35.1836 8.56454 35.0354 8.20685 34.7717 7.94313C34.508 7.67941 34.1503 7.53125 33.7773 7.53125H9.87109C8.75221 7.53125 7.67916 7.97572 6.88799 8.76689C6.09682 9.55806 5.65234 10.6311 5.65234 11.75V34.25C5.65234 35.3689 6.09682 36.4419 6.88799 37.2331C7.67916 38.0243 8.75221 38.4688 9.87109 38.4688H37.9961C38.742 38.4688 39.4574 38.1724 39.9848 37.645C40.5123 37.1175 40.8086 36.4022 40.8086 35.6562V15.9688C40.8086 15.2228 40.5123 14.5075 39.9848 13.98C39.4574 13.4526 38.742 13.1562 37.9961 13.1562ZM37.9961 35.6562H9.87109C9.49813 35.6562 9.14045 35.5081 8.87673 35.2444C8.613 34.9806 8.46484 34.623 8.46484 34.25V15.7279C8.91638 15.888 9.39202 15.9694 9.87109 15.9688H37.9961V35.6562ZM29.5586 25.1094C29.5586 24.6922 29.6823 24.2844 29.9141 23.9375C30.1459 23.5906 30.4753 23.3202 30.8607 23.1606C31.2462 23.0009 31.6703 22.9591 32.0795 23.0405C32.4887 23.1219 32.8645 23.3228 33.1595 23.6178C33.4545 23.9128 33.6554 24.2887 33.7368 24.6979C33.8182 25.107 33.7764 25.5312 33.6168 25.9166C33.4571 26.302 33.1868 26.6315 32.8399 26.8633C32.493 27.095 32.0852 27.2188 31.668 27.2188C31.1085 27.2188 30.572 26.9965 30.1764 26.6009C29.7808 26.2053 29.5586 25.6688 29.5586 25.1094Z" fill="#F3828D"/>
</svg>
