<svg width="14" height="14" viewBox="0 0 14 14" fill="none" xmlns="http://www.w3.org/2000/svg">
<path d="M12.3659 6.34427L9.98761 8.4199L10.7001 11.5101C10.7378 11.6717 10.727 11.8408 10.6691 11.9962C10.6113 12.1517 10.5088 12.2867 10.3747 12.3842C10.2405 12.4818 10.0806 12.5377 9.91485 12.5448C9.74912 12.552 9.58495 12.5102 9.44286 12.4245L6.74761 10.7898L4.05816 12.4245C3.91607 12.5102 3.7519 12.552 3.58617 12.5448C3.42044 12.5377 3.26049 12.4818 3.12634 12.3842C2.99218 12.2867 2.88977 12.1517 2.8319 11.9962C2.77403 11.8408 2.76327 11.6717 2.80097 11.5101L3.51236 8.42306L1.13351 6.34427C1.00769 6.23576 0.916707 6.09251 0.871975 5.9325C0.827242 5.77248 0.830749 5.60282 0.882056 5.44479C0.933362 5.28676 1.03018 5.14739 1.16038 5.04417C1.29058 4.94095 1.44835 4.87846 1.61392 4.86455L4.7495 4.59297L5.97347 1.67359C6.03739 1.52041 6.1452 1.38956 6.28333 1.29752C6.42146 1.20548 6.58373 1.15637 6.74972 1.15637C6.9157 1.15637 7.07798 1.20548 7.21611 1.29752C7.35424 1.38956 7.46205 1.52041 7.52597 1.67359L8.75362 4.59297L11.8882 4.86455C12.0537 4.87846 12.2115 4.94095 12.3417 5.04417C12.4719 5.14739 12.5687 5.28676 12.62 5.44479C12.6713 5.60282 12.6748 5.77248 12.6301 5.9325C12.5854 6.09251 12.4944 6.23576 12.3686 6.34427H12.3659Z" fill="#FABC0D"/>
</svg>
