<svg width="46" height="46" viewBox="0 0 46 46" fill="none" xmlns="http://www.w3.org/2000/svg">
<g clip-path="url(#clip0_237_17)">
<path d="M42.2495 28.9121C42.2642 28.9414 42.2715 29.1538 42.2715 29.5493C42.2715 29.9448 42.2788 30.4502 42.2935 31.0654C42.3081 31.6807 42.3081 32.3911 42.2935 33.1968C42.2788 34.0024 42.2788 34.8154 42.2935 35.6357C42.3081 36.4561 42.3008 37.291 42.2715 38.1406C42.2422 38.9902 42.2422 39.7373 42.2715 40.3818C42.3008 41.0264 42.2935 41.605 42.2495 42.1177C42.2056 42.6304 42.2056 42.9453 42.2495 43.0625H0.0620117V40.4038C0.0620117 39.7153 0.0546875 38.9609 0.0400391 38.1406C0.0253906 37.3203 0.0253906 36.4927 0.0400391 35.6577C0.0546875 34.8228 0.0473633 34.0024 0.0180664 33.1968C-0.0112305 32.3911 -0.0112305 31.688 0.0180664 31.0874C0.0473633 30.4868 0.0473633 29.9741 0.0180664 29.5493C-0.0112305 29.1245 0.00341797 28.9121 0.0620117 28.9121L8.47754 3.6875H16.937V6.5H10.499L3.00635 29H12.1909L15.0034 34.625H27.3081L30.1206 29H39.3052L31.8125 6.5H25.3745V3.6875H33.834L42.2495 28.9121ZM39.437 31.8125H31.8784L29.0659 37.4375H13.2456L10.4331 31.8125H2.87451V40.25H39.437V31.8125ZM19.7495 21.3755V0.875H22.562V21.3755L29.022 14.9375L30.9995 16.915L21.1558 26.7588L11.312 16.915L13.2896 14.9375L19.7495 21.3755Z" fill="#4D6897"/>
</g>
<defs>
<clipPath id="clip0_237_17">
<rect width="45" height="45" fill="white" transform="translate(0.0625 0.875)"/>
</clipPath>
</defs>
</svg>
