<svg width="45" height="46" viewBox="0 0 45 46" fill="none" xmlns="http://www.w3.org/2000/svg">
<path d="M30.9297 37.4375C32.483 37.4375 33.7422 36.1783 33.7422 34.625C33.7422 33.0717 32.483 31.8125 30.9297 31.8125C29.3764 31.8125 28.1172 33.0717 28.1172 34.625C28.1172 36.1783 29.3764 37.4375 30.9297 37.4375Z" fill="#4D6897"/>
<path d="M41.8661 33.8923C40.9972 31.6787 39.4978 29.7688 37.5538 28.3992C35.6098 27.0296 33.3066 26.2606 30.9297 26.1875C28.5528 26.2606 26.2496 27.0296 24.3056 28.3992C22.3615 29.7688 20.8622 31.6787 19.9933 33.8923L19.6797 34.625L19.9933 35.3591C20.8624 37.5724 22.3619 39.4821 24.3059 40.8514C26.2499 42.2207 28.5529 42.9895 30.9297 43.0625C33.3064 42.9895 35.6095 42.2207 37.5535 40.8514C39.4975 39.4821 40.997 37.5724 41.8661 35.3591L42.1797 34.625L41.8661 33.8923ZM30.9297 40.25C29.8172 40.25 28.7296 39.9201 27.8046 39.302C26.8796 38.6839 26.1586 37.8054 25.7329 36.7776C25.3071 35.7498 25.1957 34.6188 25.4128 33.5276C25.6298 32.4365 26.1655 31.4342 26.9522 30.6475C27.7389 29.8609 28.7412 29.3251 29.8323 29.1081C30.9234 28.891 32.0544 29.0024 33.0823 29.4282C34.1101 29.8539 34.9886 30.5749 35.6067 31.4999C36.2248 32.4249 36.5547 33.5125 36.5547 34.625C36.5528 36.1163 35.9596 37.5459 34.9051 38.6004C33.8506 39.6549 32.421 40.2481 30.9297 40.25Z" fill="#4D6897"/>
<path d="M11.2422 13.5312C12.0188 13.5312 12.6484 12.9017 12.6484 12.125C12.6484 11.3483 12.0188 10.7188 11.2422 10.7188C10.4655 10.7188 9.83594 11.3483 9.83594 12.125C9.83594 12.9017 10.4655 13.5312 11.2422 13.5312Z" fill="#4D6897"/>
<path d="M11.2422 24.7812C12.0188 24.7812 12.6484 24.1517 12.6484 23.375C12.6484 22.5983 12.0188 21.9688 11.2422 21.9688C10.4655 21.9688 9.83594 22.5983 9.83594 23.375C9.83594 24.1517 10.4655 24.7812 11.2422 24.7812Z" fill="#4D6897"/>
<path d="M11.2422 36.0312C12.0188 36.0312 12.6484 35.4017 12.6484 34.625C12.6484 33.8483 12.0188 33.2188 11.2422 33.2188C10.4655 33.2188 9.83594 33.8483 9.83594 34.625C9.83594 35.4017 10.4655 36.0312 11.2422 36.0312Z" fill="#4D6897"/>
<path d="M7.02344 30.4062H16.8672V27.5938H7.02344V19.1562H29.5234V23.375H32.3359V7.90625C32.3359 7.16033 32.0396 6.44496 31.5122 5.91751C30.9847 5.39007 30.2694 5.09375 29.5234 5.09375H7.02344C6.27752 5.09375 5.56215 5.39007 5.0347 5.91751C4.50725 6.44496 4.21094 7.16033 4.21094 7.90625V38.8438C4.21094 39.5897 4.50725 40.305 5.0347 40.8325C5.56215 41.3599 6.27752 41.6562 7.02344 41.6562H16.8672V38.8438H7.02344V30.4062ZM7.02344 7.90625H29.5234V16.3438H7.02344V7.90625Z" fill="#4D6897"/>
</svg>
